<svg xmlns="http://www.w3.org/2000/svg" width="141" height="52" viewBox="0 0 141 52">
    <defs>
        <radialGradient id="prefix__a" cx="98.211%" cy="99.832%" r="262.22%" fx="98.211%" fy="99.832%" gradientTransform="matrix(.36374 -.00018 .00006 1 .625 0)">
            <stop offset="0%" stop-color="#01147B"/>
            <stop offset="3%" stop-color="#011098"/>
            <stop offset="6%" stop-color="#010ABD"/>
            <stop offset="10%" stop-color="#0006DA"/>
            <stop offset="14%" stop-color="#0003EE"/>
            <stop offset="18%" stop-color="#0001FB"/>
            <stop offset="22%" stop-color="#00F"/>
            <stop offset="100%" stop-color="#0FF" stop-opacity="0"/>
        </radialGradient>
    </defs>
    <g fill="none" fill-rule="evenodd">
        <g>
            <path fill="#01147B" d="M53.547 23.261c.024.412-.04.806-.24 1.171-.322.587-.646 1.174-.972 1.759-.297.53-.491 1.095-.558 1.7-.018.163-.046.33.051.52.438-.65.867-1.274 1.34-1.867.554-.696 1.141-1.362 1.834-1.925.376-.306.778-.572 1.254-.704.65-.18 1.2.027 1.552.602.31.503.4 1.063.419 1.642.068 2.1-1.407 4.407-3.349 5.23-.577.246-1.179.33-1.795.232-.193-.031-.254.021-.32.181-.846 2.051-1.424 4.174-1.717 6.373-.074.557-.351.693-.807.368-.727-.519-1.115-1.243-1.151-2.134-.048-1.171.263-2.284.617-3.385.283-.882.632-1.739 1.022-2.579.053-.112.114-.213.036-.358-.558-1.031-.518-2.11-.18-3.186.456-1.456 1.305-2.663 2.431-3.682.058-.053.125-.097.194-.134.194-.103.325-.07.339.176zM5.73 14.311c3.565.098 6.85 1.21 9.98 2.831 2.1 1.088 3.993 2.467 5.6 4.217.84.915 1.54 1.922 2.047 3.06.846 1.9.606 3.684-.55 5.379-.94 1.38-2.301 2.154-3.84 2.667-2.431.812-4.897.863-7.382.275-.23-.055-.277-.007-.294.218-.05.689-.231.89-.782.942-.67.063-1.066-.181-1.223-.798-.082-.323-.123-.66-.149-.993-.016-.216-.102-.327-.296-.418-1.624-.762-3.07-1.777-4.3-3.089-.25-.267-.469-.559-.654-.875-.485-.829-.343-1.571.412-2.167.493-.389 1.045-.674 1.629-.889.953-.35 1.919-.666 2.933-.792.242-.03.33-.127.33-.375-.002-1.129.12-2.246.355-3.35.03-.144.072-.287.124-.424.112-.295.293-.343.547-.15.26.198.41.474.528.77.368.915.412 1.883.455 2.85.019.406.014.408.406.395 1.656-.052 3.263.215 4.823.76.617.214 1.153.559 1.553 1.088.525.693.523 1.444-.021 2.085-.654.772-1.368.794-2.132.52-.083-.03-.167-.072-.174-.18-.008-.109.073-.154.15-.2.22-.13.461-.224.65-.405.327-.314.293-.59-.12-.778-.55-.25-1.14-.378-1.728-.502-1.025-.216-2.059-.36-3.108-.395-.213-.007-.286.028-.28.265.048 1.649.079 3.298.113 4.947.003.129-.014.236.177.267 2.456.398 4.878.373 7.211-.616.931-.394 1.763-.946 2.296-1.84.736-1.234.711-2.507.132-3.795-.8-1.779-2.089-3.148-3.625-4.3-3.031-2.273-6.45-3.648-10.17-4.29-1.72-.297-3.452-.396-5.191-.178-.436.055-.867.137-1.333.357.232.093.397.108.562.123.159.014.314.045.449.134.111.074.197.173.178.318-.018.138-.13.201-.246.226-.514.11-1.022.084-1.504-.139-.29-.133-.308-.398-.228-.66.243-.794.767-1.316 1.57-1.546 1.346-.386 2.72-.588 4.12-.55zm43.244 8.985c.525-.016.912.21 1.213.612.13.173.244.36.343.55.196.38.097.58-.314.654-.71.128-1.427.192-2.145.244-.374.027-.749.051-1.123.068-.135.006-.216.041-.252.188-.05.21-.124.415-.199.618-.067.183-.032.238.176.222.63-.05 1.263-.055 1.894-.006.34.026.445.127.44.46-.012.884-.011.923-.83.964-.69.035-1.38.077-2.07.094-.217.006-.306.078-.355.286-.084.355-.194.703-.308 1.048-.08.24.002.283.223.236.936-.197 1.877-.364 2.827-.482.306-.038.54.054.738.275.326.366.322.73-.038 1.062-.705.653-1.542 1.088-2.433 1.425-.314.119-.644.178-.97.258-1.27.313-2.48-.944-2.313-2.249.066-.512.165-1.013.35-1.492.084-.215.114-.403.02-.62-.058-.132-.085-.283-.1-.429-.047-.465.059-.613.528-.671.198-.025.291-.105.366-.275.142-.325.305-.64.458-.96.008-.016.005-.038.01-.08-.537-.04-.982-.244-1.272-.728-.246-.411-.194-.582.268-.694.979-.239 1.976-.371 2.977-.473.629-.064 1.26-.085 1.891-.105zm16.917-1.98c.233 1.322.424 2.649.494 3.99.013.241.077.313.322.311 1.293-.012 2.587-.002 3.88-.01.22 0 .403.05.544.223v1.185c-.136.18-.316.232-.54.23-1.283-.007-2.566.003-3.85-.009-.226-.002-.276.061-.273.28.02 1.255-.03 2.507-.146 3.757-.044.465-.123.543-.583.543-.207 0-.415.003-.622 0-.34-.005-.464-.144-.425-.48.146-1.267.174-2.54.179-3.813 0-.24-.074-.288-.298-.286-1.254.01-2.507.005-3.761.005-.459 0-.556-.098-.558-.555 0-.197-.003-.395.001-.592.006-.373.106-.476.48-.477 1.244-.002 2.488-.009 3.732.006.27.003.348-.061.325-.337-.108-1.279-.26-2.551-.506-3.81-.084-.434.001-.545.435-.548.227 0 .454.009.68-.002.283-.013.438.097.49.389zm-40.172 2.29c.336.161.47.462.549.798.193.83.236 1.68.29 2.527.04.62.062 1.242.093 1.864.019.7.068 1.4.032 2.103-.027.527-.225.806-.601.858-.641.088-1.077-.134-1.244-.641-.118-.36-.137-.739-.15-1.112-.068-1.808-.057-3.614.27-5.403.054-.291.12-.58.263-.843.115-.21.282-.256.498-.152zm6.682-.385c.912.007 1.816.077 2.67.432.203.085.5.124.498.432-.001.314-.195.534-.463.673-.387.201-.819.207-1.24.24-1.113.084-2.231.065-3.343.18-.53.055-1.057.127-1.567.29-.104.032-.243.056-.247.176-.005.15.151.163.26.185.746.154 1.507.198 2.26.296.83.108 1.66.2 2.48.399 1.95.474 2.028 3.002 1.026 3.973-.561.543-1.226.849-1.98.984-1.564.28-3-.023-4.288-.965-.354-.259-.655-.576-.813-.996-.235-.626.021-1.259.641-1.606.461-.259.971-.346 1.485-.338 1.043.016 2.06.19 3.017.634.152.07.332.138.328.34-.003.188-.157.288-.31.364-.708.35-1.43.492-2.193.162-.433-.187-.858-.399-1.327-.491-.23-.045-.453-.031-.668.058-.185.077-.32.213-.335.417-.015.19.12.308.267.397.318.191.673.296 1.036.318 1.268.075 2.503-.061 3.658-.641.096-.049.19-.105.28-.166.211-.143.465-.27.435-.58-.03-.296-.284-.418-.515-.52-.714-.314-1.48-.407-2.244-.497-.97-.115-1.95-.135-2.916-.296-.996-.166-1.35-.768-1.037-1.73.17-.527.526-.894.981-1.18.768-.484 1.632-.68 2.512-.819.546-.086 1.097-.134 1.652-.125zm8.31-1.022c.281.169.523.388.742.63.785.867 1.212 1.905 1.428 3.037.262 1.376.257 2.744-.188 4.091-.072.22-.187.412-.334.587-.543.648-1.32.684-1.9.072-.582-.613-.99-1.349-1.396-2.082-.29-.525-.568-1.058-.857-1.585-.04-.073-.076-.192-.177-.172-.104.02-.084.141-.095.225-.092.646-.098 1.298-.114 1.949-.016.64-.025 1.283-.172 1.913-.099.426-.322.632-.686.655-.354.023-.673-.193-.813-.566-.207-.549-.174-1.126-.187-1.697.03-1.397.209-2.771.612-4.112.09-.303.203-.598.381-.862.338-.499.724-.543 1.148-.113.718.728 1.263 1.587 1.8 2.45.35.56.701 1.119 1.057 1.675.061.096.123.234.264.199.159-.04.104-.2.1-.303-.029-.893-.247-1.756-.449-2.619-.195-.833-.43-1.658-.648-2.486-.056-.21-.109-.42-.067-.641.066-.342.247-.427.55-.245zM8.905 25.684c-.648.052-1.297.1-1.938.213-.794.14-1.596.26-2.335.606-.513.24-.56.504-.195.943.075.09.16.174.241.26.745.777 1.637 1.352 2.567 1.876.583.33 1.192.595 1.825.8.013-.022.022-.031.022-.04 0-1.508-.004-3.015-.001-4.523 0-.15-.072-.144-.186-.135zm47.492.141L55.06 27.44c-.481.659-.92 1.342-1.313 2.102.454-.048.848-.164 1.22-.34 1.29-.606 2.074-1.593 2.215-3.036.023-.235.07-.546-.203-.657-.258-.103-.426.149-.582.317zM27.565 15.87c.611-.009 1.136.216 1.544.682.084.095.182.132.303.159 1.09.24 1.606 1.17 1.244 2.224-.104.302-.25.583-.46.82-.996 1.124-2.17 1.965-3.664 2.305-.593.135-1.176.1-1.75-.078-.156-.048-.237-.024-.292.121l-.013.027c-.125.224-.24.497-.55.458-.294-.036-.42-.3-.523-.55-.044-.109-.096-.233-.083-.342.051-.425-.135-.753-.357-1.09-.191-.291-.251-.64-.258-.988.002-.48.137-.927.407-1.31 1.081-1.54 2.542-2.41 4.452-2.438zm1.18 1.89c-.301.06-.585.165-.847.33-.647.405-1.216.903-1.742 1.455-.266.28-.488.593-.718.901-.086.116-.071.175.083.174h.532c1.083.01 2.046-.338 2.89-1.013.296-.236.556-.506.673-.879.196-.618-.237-1.096-.87-.968zm-2.675-.146c-.829-.025-2.069.929-2.24 1.696-.058.262-.033.392.133.632.568-.893 1.295-1.635 2.107-2.328z" transform="translate(.5 1.575) translate(.146)"/>
            <path fill="url(#prefix__a)" fill-rule="nonzero" d="M37.287 0c-.814 0-1.623.045-2.412.152-1.784.243-3.551.483-5.297.956-1.773.48-3.502 1.121-5.158 1.915-3.443 1.65-6.508 3.92-9.087 6.736-1.043 1.138-1.967 2.357-2.84 3.628-.192.279-.107.509.206.62.195.069.391.134.588.199.36.118.469.075.694-.242.504-.708.988-1.459 1.571-2.1.635-.695 1.268-1.392 1.903-2.088.734-.69 1.496-1.349 2.282-1.978 2.954-2.364 6.43-4.15 10.073-5.167 3.84-1.07 7.906-1.314 11.848-.728 2.515.374 4.974 1.095 7.3 2.122 2.646 1.17 5.117 2.736 7.297 4.64 2.734 2.387 4.937 5.278 6.583 8.513.191.375.374.753.548 1.136.435.951.255.942 1.128.934.1-.002.213-.003.343-.002.306 0 .54-.138.423-.473-.599-1.714-1.558-3.367-2.538-4.888-1.002-1.553-2.148-3.013-3.415-4.359l-.076-.08c-2.007-2.114-4.295-3.974-6.839-5.406-1.007-.607-2.06-1.121-3.148-1.565-.852-.413-1.748-.713-2.646-1.005C44.733.858 42.783.441 40.813.22 39.675.093 38.493 0 37.318 0h-.031z" transform="translate(.5 1.575) translate(.146)"/>
        </g>
        <path fill="#01147B" fill-rule="nonzero" d="M121.864 21.47c1.466 0 2.697.544 3.476 1.684h.036v-1.412h1.883v10.03h-1.883v-1.558h-.036c-.706 1.195-1.974 1.811-3.404 1.811-2.932 0-5.322-2.209-5.322-5.105 0-3.204 2.299-5.45 5.25-5.45zm-29.934 0c2.77 0 5.376 2.173 5.34 5.359-.036 2.732-2.369 5.294-5.674 5.193-2.802-.086-5.184-2.494-5.151-5.297.035-3.025 2.43-5.255 5.485-5.255zm15.171 0c1.666 0 3.024 1.16 3.078 2.933h-1.883c-.09-.724-.506-1.213-1.285-1.213-.724 0-1.177.49-1.177 1.069 0 .85.87 1.104 1.865 1.412 1.412.434 2.715 1.285 2.715 3.15 0 1.937-1.412 3.204-3.367 3.204-1.81 0-3.548-1.231-3.548-3.548h1.883c.09 1.213.706 1.828 1.701 1.828.87 0 1.449-.561 1.449-1.376 0-.688-.525-1.14-1.702-1.52-2.462-.779-2.879-1.847-2.879-2.988 0-1.774 1.503-2.95 3.15-2.95zm-31.295-3.095c1.04 0 1.883.843 1.883 1.883v2.552h.036c.598-.887 1.557-1.34 2.806-1.34 2.39 0 4.182 1.521 4.182 4.273v6.028H82.83v-5.449c0-2.154-.833-3.131-2.498-3.131-1.647 0-2.643 1.194-2.643 3.15v5.43h-1.883V18.375zm25.484 0v3.367h1.647v1.72h-1.647v8.31c-1.04 0-1.883-.844-1.883-1.883v-6.427h-.778v-1.72h.778v-3.367h1.883zm13.079 0v3.367h1.647v1.72h-1.647v8.31c-1.04 0-1.883-.844-1.883-1.883v-6.427h-.778v-1.72h.778v-3.367h1.883zm19.661 3.096v1.937c-1.63.054-2.462 1.05-2.462 2.733v3.748c0 1.04-.843 1.882-1.883 1.882v-10.03h1.756v.906h.036c.453-.67 1.232-1.104 2.553-1.176zm-12.111 1.72c-1.988 0-3.593 1.795-3.408 3.916.152 1.748 1.582 3.162 3.336 3.197 1.99.04 3.565-1.605 3.565-3.53 0-1.954-1.412-3.583-3.493-3.583zm-30.08 0c-2.159 0-3.985 2.094-3.402 4.428.395 1.583 1.838 2.73 3.469 2.685 1.926-.053 3.482-1.591 3.482-3.584 0-1.955-1.576-3.53-3.549-3.53z" transform="translate(.5 1.575)"/>
    </g>
</svg>
